<svg version="1.1" viewBox="0 0 600 400" xmlns="http://www.w3.org/2000/svg">
 <g transform="translate(0 -191.17)" fill="none" stroke="#000">
  <path d="m191.93 357.82c-15.596-96.136 105.15-119.96 152.53-83.843" stroke-width="1px"/>
  <path d="m232.27 337.1c-5.2891 0-9.5472 4.258-9.5472 9.5472v110.93h-0.80181v-77.403c0-5.2891-4.258-9.5472-9.5472-9.5472h-38.189c-5.2891 0-9.5472 4.258-9.5472 9.5472v171.85c0 5.2891 4.258 9.5472 9.5472 9.5472h251.53c5.2891 0 9.5472-4.258 9.5472-9.5472v-22.413c0.0433-0.35188 0.10565-0.69895 0.10565-1.0629v-86.664c0-4.7309-3.7622-8.5351-8.4656-8.6459v6e-3c-1.0713 0.036-2.1571 0.25523-3.201 0.71479l-42.154 18.566v-10.641c0-4.7309-3.7622-8.5351-8.4656-8.6459v6e-3c-1.0713 0.036-2.1571 0.25522-3.201 0.71479l-42.148 18.56v-10.635c0-4.7309-3.7622-8.5351-8.4656-8.6459v6e-3c-1.0714 0.036-2.157 0.25522-3.201 0.71479l-36.057 15.881v-103.19c0-5.2891-4.258-9.5472-9.5472-9.5472z" stroke-linejoin="round" stroke-width="6"/>
 </g>
</svg>
