<?xml version="1.0" encoding="UTF-8" standalone="no"?>
<!-- Created with Inkscape (http://www.inkscape.org/) -->

<svg
   xmlns:dc="http://purl.org/dc/elements/1.1/"
   xmlns:cc="http://creativecommons.org/ns#"
   xmlns:rdf="http://www.w3.org/1999/02/22-rdf-syntax-ns#"
   xmlns:svg="http://www.w3.org/2000/svg"
   xmlns="http://www.w3.org/2000/svg"
   xmlns:sodipodi="http://sodipodi.sourceforge.net/DTD/sodipodi-0.dtd"
   xmlns:inkscape="http://www.inkscape.org/namespaces/inkscape"
   width="600"
   height="400"
   viewBox="0 0 600.00039 400.00026"
   version="1.1"
   id="svg8100"
   inkscape:version="0.92.1 r15371"
   sodipodi:docname="impact-cars.svg">
  <defs
     id="defs8094">
    <clipPath
       clipPathUnits="userSpaceOnUse"
       id="clipPath9747-0-5">
      <rect
         style="opacity:0.2;fill:#ff0000;fill-opacity:1;fill-rule:evenodd;stroke:none"
         id="rect9749-0-5"
         width="481.05743"
         height="263.09988"
         x="-9423.2646"
         y="3461.6506"
         ry="12.007291" />
    </clipPath>
  </defs>
  <sodipodi:namedview
     id="base"
     pagecolor="#ffffff"
     bordercolor="#666666"
     borderopacity="1.0"
     inkscape:pageopacity="0.0"
     inkscape:pageshadow="2"
     inkscape:zoom="0.98994949"
     inkscape:cx="184.37895"
     inkscape:cy="192.66165"
     inkscape:document-units="px"
     inkscape:current-layer="layer1"
     showgrid="false"
     units="px"
     inkscape:window-width="1920"
     inkscape:window-height="986"
     inkscape:window-x="1429"
     inkscape:window-y="-11"
     inkscape:window-maximized="1"
     scale-x="3.77953" />
  <metadata
     id="metadata8097">
    <rdf:RDF>
      <cc:Work
         rdf:about="">
        <dc:format>image/svg+xml</dc:format>
        <dc:type
           rdf:resource="http://purl.org/dc/dcmitype/StillImage" />
        <dc:title></dc:title>
      </cc:Work>
    </rdf:RDF>
  </metadata>
  <g
     inkscape:label="Layer 1"
     inkscape:groupmode="layer"
     id="layer1"
     transform="translate(0,-191.16665)">
    <path
       sodipodi:nodetypes="sssssssssscccscccccsscccssccccccccccsccsscsssccssscsccccccc"
       inkscape:connector-curvature="0"
       d="m 456.99036,437.37129 c 0,21.17506 -17.1653,38.34066 -38.34088,38.34066 -21.17556,0 -38.34085,-17.1656 -38.34085,-38.34066 0,-21.17507 17.16529,-38.34089 38.34085,-38.34089 21.17558,0 38.34088,17.16582 38.34088,38.34089 z m -260.59379,0 c 0,21.17506 -17.1653,38.34066 -38.34087,38.34066 -21.1756,0 -38.34088,-17.1656 -38.34088,-38.34066 0,-21.17507 17.16528,-38.34089 38.34088,-38.34089 21.17557,0 38.34087,17.16582 38.34087,38.34089 z m -50.44944,-94.30456 21.81021,14.41739 219.25606,2.4117 c -10.73403,-15.39664 -65.97521,-36.13907 -117.3432,-39.16241 -18.71297,-1.1 -28.14963,-2.03998 -49.97574,-0.48509 -31.84351,3.21569 -55.29015,11.50882 -73.74733,22.81861 z m -56.305375,11.91729 -1.157183,15.29511 h 9.507655 c 6.994863,0 12.649523,-5.65378 12.649523,-12.64947 v -2.64564 z m 406.648435,36.58661 v 2.64563 c 0,6.99561 5.65464,12.64919 12.64955,12.64919 h 10.74871 v -6.118 c 0.28758,-2.97057 -0.48329,-6.05557 -2.06734,-9.17682 z M 249.29205,303.96124 c -53.88199,0 -100.26359,11.03307 -121.20175,26.86956 l -16.94864,1.32249 c -10.66551,0.81729 -19.649924,8.5256 -21.16518,18.76712 H 89.8904 l -0.08608,0.57907 c -0.09221,0.7918 -0.164315,1.57896 -0.164315,2.39771 0,0.0626 -6.13e-4,0.1204 0,0.16007 l -3.306503,45.38906 c -3.683489,7.12737 -6.117927,14.27417 -6.117927,19.67682 0,16.19125 13.075469,29.1844 29.267105,29.1844 h 6.0347 c -0.92714,-3.55366 -1.48777,-7.2324 -1.48777,-11.07859 0,-24.32381 19.74169,-44.06599 44.0665,-44.06599 24.32357,0 44.0659,19.74218 44.0659,44.06599 0,3.84619 -0.56305,7.52493 -1.4884,11.07859 h 175.43806 c -0.92775,-3.55366 -1.48839,-7.2324 -1.48839,-11.07859 0,-24.32381 19.74235,-44.06599 44.06651,-44.06599 24.32357,0 44.06592,19.74218 44.06592,44.06599 0,3.84619 -0.56306,7.52493 -1.48779,11.07859 h 29.18446 c 15.65742,0 28.36323,-12.16849 29.18388,-27.61357 h 0.0861 v -19.59401 c 1.71901,-17.80235 -33.10664,-39.97623 -68.70404,-46.54661 -12.30803,-2.27124 -24.08673,-2.74535 -34.47562,-1.65308 -24.56286,-22.5705 -104.00707,-48.94411 -167.25289,-48.94411 z"
       style="fill:none;stroke:#000000;stroke-width:6;stroke-linecap:round;stroke-linejoin:round;stroke-miterlimit:4;stroke-dasharray:none;stroke-dashoffset:0;stroke-opacity:1"
       id="path3931"
       inkscape:export-filename="C:\Users\Jonathan\Pictures\cloudsolar-diagram-2.png"
       inkscape:export-xdpi="134.08"
       inkscape:export-ydpi="134.08" />
    <path
       style="fill:none;stroke:#000000;stroke-width:5;stroke-linecap:round;stroke-linejoin:miter;stroke-miterlimit:4;stroke-dasharray:none;stroke-opacity:1"
       d="M 493.09092,478.37684 H 407.33015"
       id="path4487"
       inkscape:connector-curvature="0" />
  </g>
</svg>
