<svg width="600" height="400" version="1.1" viewBox="0 0 600.00039 400.00026" xmlns="http://www.w3.org/2000/svg">
 <g transform="translate(0 -191.17)" fill="none">
  <path d="m456.99 437.37c0 21.175-17.165 38.341-38.341 38.341-21.176 0-38.341-17.166-38.341-38.341 0-21.175 17.165-38.341 38.341-38.341 21.176 0 38.341 17.166 38.341 38.341zm-260.59 0c0 21.175-17.165 38.341-38.341 38.341-21.176 0-38.341-17.166-38.341-38.341 0-21.175 17.165-38.341 38.341-38.341 21.176 0 38.341 17.166 38.341 38.341zm-50.449-94.305 21.81 14.417 219.26 2.4117c-10.734-15.397-65.975-36.139-117.34-39.162-18.713-1.1-28.15-2.04-49.976-0.48509-31.844 3.2157-55.29 11.509-73.747 22.819zm-56.305 11.917-1.1572 15.295h9.5077c6.9949 0 12.65-5.6538 12.65-12.649v-2.6456zm406.65 36.587v2.6456c0 6.9956 5.6546 12.649 12.65 12.649h10.749v-6.118c0.28758-2.9706-0.48329-6.0556-2.0673-9.1768zm-247-87.609c-53.882 0-100.26 11.033-121.2 26.87l-16.949 1.3225c-10.666 0.81729-19.65 8.5256-21.165 18.767h-0.08608l-0.08608 0.57907c-0.09221 0.7918-0.16432 1.579-0.16432 2.3977 0 0.0626-6.13e-4 0.1204 0 0.16007l-3.3065 45.389c-3.6835 7.1274-6.1179 14.274-6.1179 19.677 0 16.191 13.075 29.184 29.267 29.184h6.0347c-0.92714-3.5537-1.4878-7.2324-1.4878-11.079 0-24.324 19.742-44.066 44.066-44.066 24.324 0 44.066 19.742 44.066 44.066 0 3.8462-0.56305 7.5249-1.4884 11.079h175.44c-0.92775-3.5537-1.4884-7.2324-1.4884-11.079 0-24.324 19.742-44.066 44.067-44.066 24.324 0 44.066 19.742 44.066 44.066 0 3.8462-0.56306 7.5249-1.4878 11.079h29.184c15.657 0 28.363-12.168 29.184-27.614h0.0861v-19.594c1.719-17.802-33.107-39.976-68.704-46.547-12.308-2.2712-24.087-2.7454-34.476-1.6531-24.563-22.57-104.01-48.944-167.25-48.944z" stroke="#000" stroke-linecap="round" stroke-linejoin="round" stroke-width="6"/>
  <path d="m493.09 478.38h-85.761" stroke="#000" stroke-linecap="round" stroke-width="5"/>
  <path d="m802.5 478.38h-1005" stroke-width="0"/>
 </g>
</svg>
