<?xml version="1.0" encoding="UTF-8" standalone="no"?>
<!-- Created with Inkscape (http://www.inkscape.org/) -->

<svg
   xmlns:dc="http://purl.org/dc/elements/1.1/"
   xmlns:cc="http://creativecommons.org/ns#"
   xmlns:rdf="http://www.w3.org/1999/02/22-rdf-syntax-ns#"
   xmlns:svg="http://www.w3.org/2000/svg"
   xmlns="http://www.w3.org/2000/svg"
   xmlns:sodipodi="http://sodipodi.sourceforge.net/DTD/sodipodi-0.dtd"
   xmlns:inkscape="http://www.inkscape.org/namespaces/inkscape"
   width="400"
   height="400"
   viewBox="0 0 105.83333 105.83334"
   version="1.1"
   id="svg8100"
   inkscape:version="0.92.1 r15371"
   sodipodi:docname="impact-co2.svg">
  <defs
     id="defs8094" />
  <sodipodi:namedview
     id="base"
     pagecolor="#ffffff"
     bordercolor="#666666"
     borderopacity="1.0"
     inkscape:pageopacity="0.0"
     inkscape:pageshadow="2"
     inkscape:zoom="0.98994949"
     inkscape:cx="-145.61429"
     inkscape:cy="376.14896"
     inkscape:document-units="mm"
     inkscape:current-layer="layer1"
     showgrid="false"
     units="px"
     inkscape:window-width="1920"
     inkscape:window-height="986"
     inkscape:window-x="1429"
     inkscape:window-y="-11"
     inkscape:window-maximized="1" />
  <metadata
     id="metadata8097">
    <rdf:RDF>
      <cc:Work
         rdf:about="">
        <dc:format>image/svg+xml</dc:format>
        <dc:type
           rdf:resource="http://purl.org/dc/dcmitype/StillImage" />
        <dc:title />
      </cc:Work>
    </rdf:RDF>
  </metadata>
  <g
     inkscape:label="Layer 1"
     inkscape:groupmode="layer"
     id="layer1"
     transform="translate(0,-191.16665)">
    <g
       id="g8846"
       transform="matrix(3.4773473,0,0,3.4773473,-53.758602,-620.14947)"
       style="stroke-width:0.60870154;stroke-miterlimit:4;stroke-dasharray:none">
      <path
         id="rect8651-9"
         transform="matrix(0.26458333,0,0,0.26458333,0,191.16665)"
         d="m 94.662109,200.08984 c -1.662,0 -3,1.338 -3,3 v 34.85743 H 91.410156 V 213.625 c 0,-1.662 -1.338,-3 -3,-3 h -12 c -1.662,0 -3,1.338 -3,3 v 54 c 0,1.662 1.338,3 3,3 h 0.251953 11.748047 67.037114 c 1.662,0 3,-1.338 3,-3 v -7.04297 c 0.0136,-0.11057 0.0332,-0.21963 0.0332,-0.33398 v -27.23243 c 0,-1.4866 -1.18221,-2.68198 -2.66016,-2.71679 v 0.002 c -0.33664,0.0113 -0.67783,0.0802 -1.00586,0.22461 l -13.24609,5.83399 v -3.34376 c 0,-1.4866 -1.1822,-2.68198 -2.66016,-2.71679 v 0.002 c -0.33664,0.0113 -0.67782,0.0802 -1.00586,0.22461 l -13.24414,5.83203 v -3.3418 c 0,-1.4866 -1.1822,-2.68198 -2.66015,-2.71679 v 0.002 c -0.33665,0.0113 -0.67781,0.0802 -1.00586,0.22461 l -11.33008,4.99023 v -32.42578 c 0,-1.662 -1.338,-3 -3,-3 z"
         style="opacity:1;fill:none;fill-opacity:1;stroke:#000000;stroke-width:2.30060429;stroke-linecap:butt;stroke-linejoin:round;stroke-miterlimit:4;stroke-dasharray:none"
         inkscape:connector-curvature="0" />
      <circle
         r="1.5284475"
         cy="241.99849"
         cx="21.757359"
         id="path8741-3"
         style="opacity:1;fill:none;fill-opacity:1;stroke:#000000;stroke-width:0.60870154;stroke-linecap:butt;stroke-linejoin:round;stroke-miterlimit:4;stroke-dasharray:none" />
      <g
         transform="translate(0.98551178,11.470734)"
         id="g8833"
         style="stroke-width:0.60870154;stroke-miterlimit:4;stroke-dasharray:none">
        <circle
           style="opacity:1;fill:none;fill-opacity:1;stroke:#000000;stroke-width:0.60870154;stroke-linecap:butt;stroke-linejoin:round;stroke-miterlimit:4;stroke-dasharray:none"
           id="path8741-3-8"
           cx="20.771847"
           cy="230.52776"
           r="1.5284475" />
        <circle
           style="opacity:1;fill:none;fill-opacity:1;stroke:#000000;stroke-width:0.60870154;stroke-linecap:butt;stroke-linejoin:round;stroke-miterlimit:4;stroke-dasharray:none"
           id="path8743-3-1"
           cx="23.594883"
           cy="227.83835"
           r="2.1298041" />
      </g>
      <g
         transform="translate(1.2527828,24.03241)"
         id="g8829"
         style="stroke-width:0.60870154;stroke-miterlimit:4;stroke-dasharray:none">
        <circle
           style="opacity:1;fill:none;fill-opacity:1;stroke:#000000;stroke-width:0.60870154;stroke-linecap:butt;stroke-linejoin:round;stroke-miterlimit:4;stroke-dasharray:none"
           id="path8741-3-5"
           cx="20.504576"
           cy="217.96608"
           r="1.5284475" />
        <path
           inkscape:connector-curvature="0"
           style="opacity:1;fill:none;fill-opacity:1;stroke:#000000;stroke-width:2.30060429;stroke-linecap:butt;stroke-linejoin:round;stroke-miterlimit:4;stroke-dasharray:none"
           d="M 102.6875,75.056641 A 11.143246,11.143246 0 0 0 91.779297,83.941406 8.0496534,8.0496534 0 0 0 88.167969,83.074219 8.0496534,8.0496534 0 0 0 80.117188,91.125 8.0496534,8.0496534 0 0 0 88.167969,99.173828 8.0496534,8.0496534 0 0 0 95.40625,94.625 11.143246,11.143246 0 0 0 102.6875,97.34375 11.143246,11.143246 0 0 0 113.83203,86.201172 11.143246,11.143246 0 0 0 102.6875,75.056641 Z"
           transform="matrix(0.26458333,0,0,0.26458333,0,191.16665)"
           id="path8743-3-9" />
      </g>
      <g
         transform="translate(2.4554939,36.59407)"
         id="g8825"
         style="stroke-width:0.60870154;stroke-miterlimit:4;stroke-dasharray:none">
        <circle
           style="opacity:1;fill:none;fill-opacity:1;stroke:#000000;stroke-width:0.60870154;stroke-linecap:butt;stroke-linejoin:round;stroke-miterlimit:4;stroke-dasharray:none"
           id="path8741-3-3"
           cx="19.301865"
           cy="205.40442"
           r="1.5284475" />
        <path
           inkscape:connector-curvature="0"
           style="opacity:1;fill:none;fill-opacity:1;stroke:#000000;stroke-width:2.30060429;stroke-linecap:butt;stroke-linejoin:round;stroke-miterlimit:4;stroke-dasharray:none"
           d="m 117.42969,25.222656 a 15.404825,15.404825 0 0 0 -11.68164,5.375 11.143246,11.143246 0 0 0 -7.605472,-3.017578 11.143246,11.143246 0 0 0 -10.910156,8.882813 8.0496534,8.0496534 0 0 0 -3.611328,-0.865235 8.0496534,8.0496534 0 0 0 -8.048828,8.048828 8.0496534,8.0496534 0 0 0 8.048828,8.050782 8.0496534,8.0496534 0 0 0 7.238281,-4.550782 11.143246,11.143246 0 0 0 7.283203,2.720704 11.143246,11.143246 0 0 0 5.882812,-1.6875 15.404825,15.404825 0 0 0 13.4043,7.853515 15.404825,15.404825 0 0 0 15.40625,-15.404297 15.404825,15.404825 0 0 0 -15.40625,-15.40625 z"
           transform="matrix(0.26458333,0,0,0.26458333,0,191.16665)"
           id="path8743-3-2" />
      </g>
    </g>
  </g>
</svg>
