<svg version="1.1" viewBox="0 0 600 400" xmlns="http://www.w3.org/2000/svg">
 <g transform="translate(0 -191.17)" fill="none" stroke="#000" stroke-linecap="round" stroke-linejoin="round">
  <g stroke-width="8">
   <path d="m300.12 208.54c-29.945 0-54.228 24.28-54.228 54.228 0 3.3674 0.28889 6.6255 0.87688 9.8236-31.926 8.2143-55.493 37.198-55.493 71.687 0 40.876 33.146 74.022 74.022 74.022 28.455 0 53.123-16.09 65.51-39.637 29.289-0.75578 52.815-24.709 52.815-54.178 0-21.564-12.606-40.19-30.832-48.927 0.99652-4.113 1.5553-8.369 1.5553-12.79 0-29.948-24.281-54.228-54.228-54.228z"/>
   <g>
    <path d="m288.63 552.07v-259.64"/>
    <path d="m288.63 346.26 44.328-44.33"/>
    <path d="m287.83 382.67-45.91-45.913"/>
   </g>
  </g>
  <g stroke-width="6">
   <path d="m139.31 393.73c15.808 0 28.626 12.817 28.626 28.626 0 1.7777-0.15247 3.4975-0.46289 5.1858 16.854 4.3362 29.294 19.636 29.294 37.842 0 21.578-17.497 39.075-39.076 39.075-15.021 0-28.043-8.4938-34.582-20.924-15.461-0.39876-27.881-13.043-27.881-28.6 0-11.384 6.6546-21.216 16.276-25.828-0.52605-2.1712-0.82104-4.4179-0.82104-6.7516 0-15.809 12.818-28.626 28.626-28.626z"/>
   <g>
    <path d="m145.38 575.07v-137.06"/>
    <path d="m145.38 466.43-23.4-23.401"/>
    <path d="m145.8 485.65 24.235-24.237"/>
   </g>
  </g>
  <g stroke-width="6">
   <path d="m431.11 555.24v-151.19"/>
   <path d="m431.11 461.83-34.829-34.829"/>
   <path d="m436.25 346.27c-17.707 0-32.051 14.345-32.051 32.051 0 1.9609 0.19697 3.8737 0.53547 5.7384-21.591 8.2435-36.963 29.157-36.963 53.644 0 31.696 25.694 57.388 57.389 57.388 31.695 0 57.388-25.692 57.388-57.388 0-16.926-7.3127-32.148-18.969-42.652 2.9925-4.8746 4.717-10.594 4.717-16.731 0-17.705-14.342-32.051-32.048-32.051z"/>
  </g>
 </g>
</svg>
