<?xml version="1.0" encoding="UTF-8" standalone="no"?>
<!-- Created with Inkscape (http://www.inkscape.org/) -->

<svg
   xmlns:dc="http://purl.org/dc/elements/1.1/"
   xmlns:cc="http://creativecommons.org/ns#"
   xmlns:rdf="http://www.w3.org/1999/02/22-rdf-syntax-ns#"
   xmlns:svg="http://www.w3.org/2000/svg"
   xmlns="http://www.w3.org/2000/svg"
   xmlns:sodipodi="http://sodipodi.sourceforge.net/DTD/sodipodi-0.dtd"
   xmlns:inkscape="http://www.inkscape.org/namespaces/inkscape"
   width="600"
   height="400"
   viewBox="0 0 600 400"
   version="1.1"
   id="svg8100"
   inkscape:version="0.92.1 r15371"
   sodipodi:docname="impact-trees.svg">
  <defs
     id="defs8094">
    <clipPath
       clipPathUnits="userSpaceOnUse"
       id="clipPath9747-0-5">
      <rect
         style="opacity:0.2;fill:#ff0000;fill-opacity:1;fill-rule:evenodd;stroke:none"
         id="rect9749-0-5"
         width="481.05743"
         height="263.09988"
         x="-9423.2646"
         y="3461.6506"
         ry="12.007291" />
    </clipPath>
  </defs>
  <sodipodi:namedview
     id="base"
     pagecolor="#ffffff"
     bordercolor="#666666"
     borderopacity="1.0"
     inkscape:pageopacity="0.0"
     inkscape:pageshadow="2"
     inkscape:zoom="0.9899495"
     inkscape:cx="47.95709"
     inkscape:cy="282.43227"
     inkscape:document-units="px"
     inkscape:current-layer="layer1"
     showgrid="false"
     units="px"
     inkscape:window-width="1920"
     inkscape:window-height="986"
     inkscape:window-x="1429"
     inkscape:window-y="-11"
     inkscape:window-maximized="1" />
  <metadata
     id="metadata8097">
    <rdf:RDF>
      <cc:Work
         rdf:about="">
        <dc:format>image/svg+xml</dc:format>
        <dc:type
           rdf:resource="http://purl.org/dc/dcmitype/StillImage" />
        <dc:title></dc:title>
      </cc:Work>
    </rdf:RDF>
  </metadata>
  <g
     inkscape:label="Layer 1"
     inkscape:groupmode="layer"
     id="layer1"
     transform="translate(0,-191.16665)">
    <g
       id="g4518">
      <path
         sodipodi:nodetypes="sscsscscss"
         id="path9473-1-7"
         d="m 300.11634,208.53647 c -29.94513,0 -54.22777,24.27972 -54.22777,54.22777 0,3.36744 0.28889,6.62546 0.87688,9.82365 -31.9265,8.21434 -55.49276,37.19798 -55.49276,71.68653 0,40.87619 33.14625,74.02244 74.02244,74.02244 28.45546,0 53.12329,-16.09019 65.51045,-39.63747 29.28858,-0.75578 52.81544,-24.70868 52.81544,-54.17817 0,-21.56447 -12.60602,-40.19045 -30.83223,-48.92712 0.99652,-4.11301 1.55533,-8.369 1.55533,-12.78986 0,-29.94805 -24.28118,-54.22777 -54.22778,-54.22777 z"
         style="fill:none;stroke:#000000;stroke-width:8;stroke-linecap:round;stroke-linejoin:round;stroke-miterlimit:4;stroke-dasharray:none"
         inkscape:connector-curvature="0" />
      <path
         inkscape:connector-curvature="0"
         id="path9484-5-9"
         d="M 288.62648,552.06804 V 292.4307"
         style="fill:none;stroke:#000000;stroke-width:8;stroke-linecap:round;stroke-linejoin:round;stroke-miterlimit:4;stroke-dasharray:none;stroke-opacity:1" />
      <path
         inkscape:connector-curvature="0"
         id="path9486-9-3"
         d="m 288.62648,346.2587 44.32826,-44.32971"
         style="fill:none;stroke:#000000;stroke-width:8;stroke-linecap:round;stroke-linejoin:round;stroke-miterlimit:4;stroke-dasharray:none;stroke-opacity:1" />
      <path
         inkscape:connector-curvature="0"
         id="path9488-5-9"
         d="M 287.83423,382.67172 241.92438,336.75896"
         style="fill:none;stroke:#000000;stroke-width:8;stroke-linecap:round;stroke-linejoin:round;stroke-miterlimit:4;stroke-dasharray:none;stroke-opacity:1" />
    </g>
    <g
       id="g4507">
      <path
         sodipodi:nodetypes="sscsscscss"
         inkscape:connector-curvature="0"
         style="fill:none;stroke:#000000;stroke-width:6;stroke-linecap:round;stroke-linejoin:round;stroke-miterlimit:4;stroke-dasharray:none"
         d="m 139.31294,393.72611 c 15.80767,0 28.62617,12.81696 28.62617,28.62614 0,1.77766 -0.15247,3.49752 -0.46289,5.18578 16.85361,4.33624 29.29394,19.63636 29.29394,37.84247 0,21.57801 -17.49749,39.07549 -39.07553,39.07549 -15.02129,0 -28.04313,-8.49381 -34.58216,-20.92411 -15.46108,-0.39876 -27.880614,-13.0434 -27.880614,-28.59999 0,-11.38363 6.654564,-21.21605 16.275954,-25.82801 -0.52605,-2.17122 -0.82104,-4.41791 -0.82104,-6.75163 0,-15.80918 12.81773,-28.62614 28.62617,-28.62614 z"
         id="path4491" />
      <path
         style="fill:none;stroke:#000000;stroke-width:6;stroke-linecap:round;stroke-linejoin:round;stroke-miterlimit:4;stroke-dasharray:none;stroke-opacity:1"
         d="M 145.3783,575.07215 V 438.01283"
         id="path4493"
         inkscape:connector-curvature="0" />
      <path
         style="fill:none;stroke:#000000;stroke-width:6;stroke-linecap:round;stroke-linejoin:round;stroke-miterlimit:4;stroke-dasharray:none;stroke-opacity:1"
         d="M 145.3783,466.42795 121.97796,443.02684"
         id="path4495"
         inkscape:connector-curvature="0" />
      <path
         style="fill:none;stroke:#000000;stroke-width:6;stroke-linecap:round;stroke-linejoin:round;stroke-miterlimit:4;stroke-dasharray:none;stroke-opacity:1"
         d="m 145.79652,485.64992 24.23524,-24.23676"
         id="path4497"
         inkscape:connector-curvature="0" />
    </g>
    <g
       id="g4512">
      <path
         inkscape:connector-curvature="0"
         id="path9490-1-1"
         d="M 431.11099,555.2356 V 404.04359"
         style="fill:none;stroke:#000000;stroke-width:6;stroke-linecap:round;stroke-linejoin:round;stroke-miterlimit:4;stroke-dasharray:none;stroke-opacity:1" />
      <path
         inkscape:connector-curvature="0"
         id="path9492-0-8"
         d="M 431.11099,461.82703 396.28248,426.99852"
         style="fill:none;stroke:#000000;stroke-width:6;stroke-linecap:round;stroke-linejoin:round;stroke-miterlimit:4;stroke-dasharray:none;stroke-opacity:1" />
      <path
         sodipodi:nodetypes="sscssscss"
         inkscape:connector-curvature="0"
         style="fill:none;stroke:#000000;stroke-width:6;stroke-linecap:round;stroke-linejoin:round;stroke-miterlimit:4;stroke-dasharray:none"
         d="m 436.24532,346.26892 c -17.70679,0 -32.05052,14.34518 -32.05052,32.05051 0,1.96094 0.19697,3.87373 0.53547,5.73837 -21.59073,8.24352 -36.96307,29.15726 -36.96307,53.64416 0,31.69597 25.69352,57.38804 57.38949,57.38804 31.69451,0 57.38804,-25.69207 57.38804,-57.38804 0,-16.92621 -7.31266,-32.14827 -18.96886,-42.65183 2.99248,-4.87462 4.71705,-10.59402 4.71705,-16.7307 0,-17.70533 -14.34227,-32.05051 -32.0476,-32.05051 z"
         id="path4501" />
    </g>
  </g>
</svg>
